<svg xmlns="http://www.w3.org/2000/svg" viewBox="0 0 200 200" fill="none" stroke="#c9a962" stroke-width="1" aria-hidden="true">
  <circle cx="100" cy="100" r="80"/>
  <circle cx="100" cy="100" r="60"/>
  <circle cx="100" cy="100" r="40"/>
  <circle cx="100" cy="100" r="20"/>
  <path d="M100 20 L100 180 M20 100 L180 100 M41 41 L159 159 M159 41 L41 159"/>
  <path d="M100 20 Q130 50 100 80 Q70 50 100 20"/>
  <path d="M100 180 Q130 150 100 120 Q70 150 100 180"/>
  <path d="M20 100 Q50 130 80 100 Q50 70 20 100"/>
  <path d="M180 100 Q150 130 120 100 Q150 70 180 100"/>
  <circle cx="100" cy="20" r="4" fill="#c9a962"/>
  <circle cx="100" cy="180" r="4" fill="#c9a962"/>
  <circle cx="20" cy="100" r="4" fill="#c9a962"/>
  <circle cx="180" cy="100" r="4" fill="#c9a962"/>
</svg>
