<svg xmlns="http://www.w3.org/2000/svg" viewBox="0 0 200 120" aria-hidden="true">
  <defs>
    <linearGradient id="goldGrad" x1="0%" y1="0%" x2="100%" y2="100%">
      <stop offset="0%" style="stop-color:#e8d5a3"/>
      <stop offset="50%" style="stop-color:#c9a962"/>
      <stop offset="100%" style="stop-color:#9a7b3c"/>
    </linearGradient>
  </defs>
  <path d="M100 5 L115 25 L85 25 Z" fill="url(#goldGrad)"/>
  <rect x="95" y="25" width="10" height="15" fill="#c9a962"/>
  <ellipse cx="100" cy="42" rx="55" ry="8" fill="none" stroke="#c9a962" stroke-width="1.5"/>
  <path d="M45 42 Q100 55 155 42" fill="none" stroke="#c9a962" stroke-width="1"/>
  <line x1="45" y1="42" x2="45" y2="95" stroke="#c9a962" stroke-width="2"/>
  <line x1="155" y1="42" x2="155" y2="95" stroke="#c9a962" stroke-width="2"/>
  <path d="M45 95 Q100 105 155 95" fill="none" stroke="#c9a962" stroke-width="1.5"/>
  <line x1="65" y1="42" x2="65" y2="95" stroke="#c9a962" stroke-width="0.8" opacity="0.6"/>
  <line x1="85" y1="42" x2="85" y2="95" stroke="#c9a962" stroke-width="0.8" opacity="0.6"/>
  <line x1="115" y1="42" x2="115" y2="95" stroke="#c9a962" stroke-width="0.8" opacity="0.6"/>
  <line x1="135" y1="42" x2="135" y2="95" stroke="#c9a962" stroke-width="0.8" opacity="0.6"/>
  <rect x="30" y="95" width="140" height="8" rx="2" fill="#6b1c2b" opacity="0.3"/>
  <circle cx="100" cy="70" r="8" fill="none" stroke="#b76e79" stroke-width="1" opacity="0.5"/>
</svg>
